<?xml version="1.0" encoding="UTF-8" standalone="no"?>
<!-- Created with Inkscape (http://www.inkscape.org/) -->

<svg
   width="512"
   height="512"
   viewBox="0 0 135.46666 135.46666"
   version="1.1"
   id="svg5"
   inkscape:version="1.1 (c4e8f9ed74, 2021-05-24)"
   sodipodi:docname="logo.svg"
   inkscape:export-xdpi="96"
   inkscape:export-ydpi="96"
   xmlns:inkscape="http://www.inkscape.org/namespaces/inkscape"
   xmlns:sodipodi="http://sodipodi.sourceforge.net/DTD/sodipodi-0.dtd"
   xmlns:xlink="http://www.w3.org/1999/xlink"
   xmlns="http://www.w3.org/2000/svg"
   xmlns:svg="http://www.w3.org/2000/svg">
  <sodipodi:namedview
     id="namedview7"
     pagecolor="#ffffff"
     bordercolor="#666666"
     borderopacity="1.0"
     inkscape:pageshadow="2"
     inkscape:pageopacity="0.0"
     inkscape:pagecheckerboard="0"
     inkscape:document-units="mm"
     showgrid="false"
     units="px"
     height="512px"
     inkscape:zoom="0.38885733"
     inkscape:cx="507.89837"
     inkscape:cy="-38.574559"
     inkscape:window-width="1920"
     inkscape:window-height="1011"
     inkscape:window-x="0"
     inkscape:window-y="0"
     inkscape:window-maximized="1"
     inkscape:current-layer="layer1" />
  <defs
     id="defs2">
    <linearGradient
       inkscape:collect="always"
       id="linearGradient8790">
      <stop
         style="stop-color:#ffffff;stop-opacity:1"
         offset="0"
         id="stop8794" />
      <stop
         style="stop-color:#ffffff;stop-opacity:0.80002576"
         offset="0.79407418"
         id="stop8829" />
      <stop
         style="stop-color:#868585;stop-opacity:0.32156864"
         offset="1"
         id="stop8796" />
    </linearGradient>
    <filter
       inkscape:collect="always"
       style="color-interpolation-filters:sRGB"
       id="filter7664"
       x="-0.01693846"
       y="-0.01693846"
       width="1.0338769"
       height="1.0338769">
      <feGaussianBlur
         inkscape:collect="always"
         stdDeviation="0.95608191"
         id="feGaussianBlur7666" />
    </filter>
    <mask
       maskUnits="userSpaceOnUse"
       id="mask8752">
      <g
         id="g8760"
         transform="translate(-1.7331737,-5.4962121)"
         style="fill:#ffffff;fill-opacity:1">
        <path
           id="path8754"
           style="fill:#ffffff;fill-opacity:1;stroke:#000000;stroke-width:1.367;stroke-linecap:round;stroke-linejoin:round;stroke-opacity:0.904149"
           d="M 58.298973,73.229546 A 23.041679,23.041679 0 0 1 35.257294,96.271225 23.041679,23.041679 0 0 1 12.215614,73.229546 23.041679,23.041679 0 0 1 35.257294,50.187866 23.041679,23.041679 0 0 1 58.298973,73.229546 Z" />
        <path
           id="path8756"
           style="fill:#ffffff;fill-opacity:1;stroke:#000000;stroke-width:1.367;stroke-linecap:round;stroke-linejoin:round;stroke-opacity:0.904149"
           d="M 126.7174,73.229546 A 23.041679,23.041679 0 0 1 103.67572,96.271225 23.041679,23.041679 0 0 1 80.634041,73.229546 23.041679,23.041679 0 0 1 103.67572,50.187866 23.041679,23.041679 0 0 1 126.7174,73.229546 Z" />
        <path
           id="path8758"
           style="fill:none;fill-opacity:1;stroke:#000000;stroke-width:1.367;stroke-linecap:round;stroke-linejoin:round;stroke-opacity:0.904149"
           d="m 57.759903,68.202166 a 23.291767,25.762226 0 0 1 23.251964,0.02536" />
      </g>
    </mask>
    <mask
       maskUnits="userSpaceOnUse"
       id="mask9569">
      <circle
         style="opacity:1;fill:url(#radialGradient9573);fill-opacity:1;stroke:#000000;stroke-width:1.367;stroke-linecap:round;stroke-linejoin:round;stroke-miterlimit:4;stroke-dasharray:none;stroke-opacity:0.904149"
         id="circle9571"
         cx="67.73333"
         cy="67.73333"
         r="95.779167" />
    </mask>
    <radialGradient
       inkscape:collect="always"
       xlink:href="#linearGradient8790"
       id="radialGradient9573"
       gradientUnits="userSpaceOnUse"
       gradientTransform="translate(-1.038737e-5)"
       cx="67.73333"
       cy="67.73333"
       fx="67.73333"
       fy="67.73333"
       r="80.058502" />
    <filter
       style="color-interpolation-filters:sRGB;"
       inkscape:label="Edge Detect"
       id="filter14088"
       x="-0.11130365"
       y="-0.15477862"
       width="1.2226073"
       height="1.3095572">
      <feColorMatrix
         in="SourceGraphic"
         values="1 0 0 0 0 0 1 0 0 0 0 0 1 0 0 -0.2125 -0.7154 -0.0721 1 0 "
         result="colormatrix"
         id="feColorMatrix14078" />
      <feComposite
         in="SourceGraphic"
         in2="colormatrix"
         operator="arithmetic"
         k2="1"
         k3="5.61029"
         k4="0.253601"
         result="composite"
         id="feComposite14080"
         k1="0" />
      <feGaussianBlur
         stdDeviation="16.641401209677419 0.01"
         result="blur1"
         id="feGaussianBlur14082" />
      <feGaussianBlur
         in="composite"
         stdDeviation="0.01 4.1255808565296554"
         result="blur2"
         id="feGaussianBlur14084" />
      <feBlend
         in="blur2"
         in2="blur1"
         mode="normal"
         result="fbSourceGraphic"
         id="feBlend14086" />
      <feColorMatrix
         result="fbSourceGraphicAlpha"
         in="fbSourceGraphic"
         values="0 0 0 -1 0 0 0 0 -1 0 0 0 0 -1 0 0 0 0 1 0"
         id="feColorMatrix17267" />
      <feConvolveMatrix
         id="feConvolveMatrix17269"
         in="fbSourceGraphic"
         kernelMatrix="0 1 0 0 -2 0 0 1 0"
         order="3 3"
         bias="1.0085914811229415"
         divisor="0.0926431"
         targetX="1"
         targetY="1"
         preserveAlpha="true"
         result="convolve"
         edgeMode="duplicate" />
    </filter>
    <mask
       maskUnits="userSpaceOnUse"
       id="mask22166">
      <path
         sodipodi:type="star"
         style="fill:#ffffff;fill-opacity:1;stroke:#ffffff;stroke-width:10.785;stroke-linecap:round;stroke-linejoin:round;stroke-miterlimit:4;stroke-dasharray:none;stroke-opacity:1"
         id="path22168"
         inkscape:flatsided="true"
         sodipodi:sides="4"
         sodipodi:cx="-659.44794"
         sodipodi:cy="-133.90263"
         sodipodi:r1="307.28201"
         sodipodi:r2="217.2812"
         sodipodi:arg1="0.78539816"
         sodipodi:arg2="1.5707963"
         inkscape:rounded="0.17"
         inkscape:randomized="0"
         d="m -442.16674,83.378561 c -52.23794,52.237939 -382.32445,52.237939 -434.56239,10e-7 -52.23794,-52.237942 -52.23794,-382.324452 0,-434.562392 52.23794,-52.23794 382.32444,-52.23794 434.56239,0 52.23794,52.23794 52.23794,382.324448 0,434.562391 z"
         transform="matrix(0.25765993,0,0,0.25764887,237.64664,102.2332)"
         inkscape:transform-center-y="1.2486293e-05"
         inkscape:transform-center-x="2.9347026e-06" />
    </mask>
  </defs>
  <g
     inkscape:label="Layer 1"
     inkscape:groupmode="layer"
     id="layer1">
    <path
       sodipodi:type="star"
       style="fill:#f9f9f9;fill-opacity:1;stroke:#0bcbff;stroke-width:10.785;stroke-linecap:round;stroke-linejoin:round;stroke-miterlimit:4;stroke-dasharray:none;stroke-opacity:1"
       id="path7519-3"
       inkscape:flatsided="true"
       sodipodi:sides="4"
       sodipodi:cx="-659.44794"
       sodipodi:cy="-133.90263"
       sodipodi:r1="307.28201"
       sodipodi:r2="217.2812"
       sodipodi:arg1="0.78539816"
       sodipodi:arg2="1.5707963"
       inkscape:rounded="0.17"
       inkscape:randomized="0"
       transform="matrix(0.25765993,0,0,0.25764887,237.64664,102.2332)"
       inkscape:transform-center-y="1.2486293e-05"
       inkscape:transform-center-x="2.9347026e-06"
       d="m -442.16674,83.378561 c -52.23794,52.237939 -382.32445,52.237939 -434.56239,10e-7 -52.23794,-52.237942 -52.23794,-382.324452 0,-434.562392 52.23794,-52.23794 382.32444,-52.23794 434.56239,0 52.23794,52.23794 52.23794,382.324448 0,434.562391 z" />
    <g
       id="g21984"
       mask="url(#mask22166)">
      <g
         id="g9169"
         mask="url(#mask9569)">
        <path
           d="M 16.933332,0 V 135.46666 M 33.866665,0 V 135.46666 M 50.799997,0 V 135.46666 M 67.73333,0 V 135.46666 M 84.666662,0 V 135.46666 M 101.6,0 V 135.46666 M 118.53333,0 V 135.46666 M 0,16.933332 H 135.46666 M 0,33.866665 H 135.46666 M 0,50.799997 H 135.46666 M 0,67.73333 H 135.46666 M 0,84.666662 H 135.46666 M 0,101.6 H 135.46666 M 0,118.53333 h 135.46666"
           style="fill:none;stroke:#00a2ff;stroke-width:0.529167px;stroke-opacity:1;filter:url(#filter7664);opacity:0.69175255"
           id="path1197"
           sodipodi:nodetypes="cccccccccccccccccccccccccccc" />
        <path
           d="M 16.933337,3.9272913e-6 V 135.46667 M 33.86667,3.9272913e-6 V 135.46667 M 50.800002,3.9272913e-6 V 135.46667 M 67.733335,3.9272913e-6 V 135.46667 M 84.666667,3.9272913e-6 V 135.46667 M 101.6,3.9272913e-6 V 135.46667 M 118.53333,3.9272913e-6 V 135.46667 M 4.8472912e-6,16.933336 H 135.46666 M 4.8472912e-6,33.866669 H 135.46666 M 4.8472912e-6,50.800001 H 135.46666 M 4.8472912e-6,67.733334 H 135.46666 M 4.8472912e-6,84.666666 H 135.46666 M 4.8472912e-6,101.60001 H 135.46666 M 4.8472912e-6,118.53334 H 135.46666"
           style="opacity:0.691753;fill:none;stroke:#00a2ff;stroke-width:0.529167px;stroke-opacity:1"
           id="path1197-5"
           sodipodi:nodetypes="cccccccccccccccccccccccccccc"
           mask="url(#mask8752)" />
      </g>
      <g
         id="g6246"
         transform="translate(-1.7331737,-5.4962122)">
        <path
           id="path31"
           style="fill:none;stroke:#000000;stroke-width:3.367;stroke-linecap:round;stroke-linejoin:round;stroke-opacity:0.904149;stroke-miterlimit:4;stroke-dasharray:none"
           d="M 58.298973,73.229546 A 23.041679,23.041679 0 0 1 35.257294,96.271225 23.041679,23.041679 0 0 1 12.215614,73.229546 23.041679,23.041679 0 0 1 35.257294,50.187866 23.041679,23.041679 0 0 1 58.298973,73.229546 Z" />
        <path
           id="path31-3"
           style="fill:none;stroke:#000000;stroke-width:3.367;stroke-linecap:round;stroke-linejoin:round;stroke-opacity:0.904149;stroke-miterlimit:4;stroke-dasharray:none"
           d="M 126.7174,73.229546 A 23.041679,23.041679 0 0 1 103.67572,96.271225 23.041679,23.041679 0 0 1 80.634041,73.229546 23.041679,23.041679 0 0 1 103.67572,50.187866 23.041679,23.041679 0 0 1 126.7174,73.229546 Z" />
        <path
           id="path4873"
           style="fill:none;stroke:#000000;stroke-width:3.367;stroke-linecap:round;stroke-linejoin:round;stroke-opacity:0.904149;stroke-miterlimit:4;stroke-dasharray:none"
           d="m 57.759903,68.202166 a 23.291767,25.762226 0 0 1 23.251964,0.02536" />
      </g>
    </g>
    <path
       id="text10538-0"
       style="font-style:normal;font-weight:normal;font-size:70.5556px;line-height:1.25;font-family:sans-serif;letter-spacing:0px;word-spacing:0px;fill:#ffffff;fill-opacity:1;stroke:none;stroke-width:0.529167;stroke-miterlimit:4;stroke-dasharray:none;stroke-opacity:1"
       d="m 379.43555,37.410156 c -1.34092,0.363151 -2.65566,0.895685 -4.04308,1.115617 -0.88267,0.173142 -1.77775,0.271379 -2.67372,0.345321 -0.75421,0.664576 -0.59837,1.707793 -0.42654,2.579889 0.65136,6.785199 0.38635,13.648749 0.43876,20.477129 -0.0375,7.762932 0.19101,15.576011 -0.35675,23.30034 -0.0261,0.944577 -0.29151,1.915666 -0.2336,2.837954 0.23294,0.881698 1.25905,1.099231 2.02744,0.832153 2.07694,-0.184115 4.12486,-0.146473 6.15421,0.154175 0.81287,-0.495703 0.97406,-1.510556 0.72601,-2.363052 -0.80436,-7.788941 -0.46386,-15.657884 -0.53974,-23.490461 -0.001,-7.019585 -0.12736,-14.064073 0.44476,-21.044972 0.0336,-1.198677 0.25945,-2.412998 0.12482,-3.603468 -0.22292,-0.690132 -0.91397,-1.187008 -1.64257,-1.140625 z m -194.44922,2.837891 c -4.83471,0.161767 -9.5867,2.672656 -12.20826,6.779242 -2.79344,4.25205 -2.43825,10.249835 0.79551,14.169832 2.71381,3.33074 6.75125,5.140286 10.58966,6.836301 2.354,1.071878 4.85928,2.377563 6.17364,4.71169 0.96678,1.884467 1.14706,4.098916 0.75754,6.204271 -0.55883,2.98747 -3.42773,5.124127 -6.38856,5.284506 -2.85275,0.219408 -5.49215,-1.306471 -7.63814,-3.036879 -1.52815,-1.268695 -2.7589,-2.878194 -3.62045,-4.66576 -0.73614,0.326158 -1.90021,-0.187195 -2.25782,0.787109 -0.30828,2.692191 -1.0578,5.303785 -1.80468,7.900391 0.77818,1.444194 2.50061,1.845609 3.88052,2.483982 3.8565,1.417063 8.03186,1.976826 12.12717,1.692411 4.80725,-0.327803 9.6263,-2.620746 12.34751,-6.693883 3.1437,-4.656787 2.98737,-11.313183 -0.40761,-15.799118 -2.91701,-3.77128 -7.39276,-5.845749 -11.76205,-7.445111 -2.20413,-0.901909 -4.57873,-2.002362 -5.83593,-4.138672 -1.60399,-2.66795 -1.27788,-6.418983 0.98046,-8.613281 1.23136,-1.137094 3.03387,-1.190851 4.61827,-1.218912 3.10175,0.06347 5.72122,2.239514 7.39109,4.701189 0.60759,0.878055 1.06288,1.847443 1.47697,2.82827 0.7459,-0.34612 1.93712,0.186174 2.3086,-0.798828 0.32445,-2.624602 1.05338,-5.174039 1.77734,-7.710938 -1.16899,-1.85043 -3.35882,-2.623553 -5.32252,-3.312997 -2.58082,-0.770682 -5.29465,-0.998603 -7.97826,-0.944815 z m 160.39453,0.01172 c -9.00344,0.50539 -17.33907,6.556045 -20.87567,14.81134 -3.52414,7.849268 -2.83506,17.525654 2.08661,24.633972 2.60817,3.873361 6.48085,6.87052 10.91298,8.36125 4.39527,1.499626 9.22811,1.852225 13.7647,0.810119 5.38254,-1.325905 9.91106,-4.977237 13.18813,-9.350311 0.44806,-0.466591 0.85138,-0.92533 0.0537,-1.244254 -0.90345,-0.717743 -1.80768,-1.434516 -2.71056,-2.152976 -2.66589,2.897517 -5.56578,6.005022 -9.52539,7.001953 -2.93645,0.745688 -5.96039,0.881179 -8.92491,0.234603 -3.41527,-0.805713 -6.31271,-3.145625 -8.14826,-6.095123 -1.81798,-2.814098 -2.8202,-5.955163 -3.26244,-9.271812 -0.65958,-5.360466 -0.0942,-11.257131 2.88834,-15.953605 2.4735,-3.616722 6.57518,-6.472083 11.0918,-6.351563 4.08366,0.0082 8.44504,1.261197 11.14983,4.490737 0.93386,1.061455 1.6317,2.301552 2.25056,3.565904 0.77169,-0.292587 1.95145,0.171261 2.34766,-0.796875 0.092,-2.873052 0.79863,-5.668608 1.51367,-8.416016 -0.45508,-1.213621 -1.88967,-1.369874 -2.92813,-1.839054 -4.75628,-1.695906 -9.81692,-2.595212 -14.87265,-2.438289 z m -89.10742,15.455078 c -5.86341,0.378345 -11.24672,4.41979 -13.3837,9.872799 -1.77729,4.28484 -1.83072,9.149139 -0.6856,13.602002 0.84512,3.228384 2.8479,6.191459 5.75557,7.893188 4.2819,2.624823 9.79727,3.10208 14.50016,1.377955 3.25648,-1.210138 6.08139,-3.476557 8.05185,-6.329929 -0.89972,-1.118635 -1.79809,-2.238355 -2.69727,-3.357421 -1.89876,2.401328 -4.73733,4.047109 -7.8,4.339706 -2.98803,0.446133 -6.69474,-0.329241 -8.49883,-3.070175 -1.48514,-2.268024 -1.60167,-5.068153 -1.74804,-7.689453 6.25074,-0.02173 12.50603,0.05462 18.7539,-0.04883 1.29999,-0.209425 1.92816,-1.680921 1.68871,-2.873719 -0.0982,-4.259712 -1.79408,-8.697264 -5.25779,-11.330297 -2.48308,-1.814588 -5.64022,-2.520622 -8.67896,-2.385828 z m 144.20703,-0.0039 c -3.55478,0.161097 -7.06276,1.494813 -9.78014,3.799977 -0.47727,0.42401 -1.07822,0.899293 -1.28776,1.474858 0.48705,1.963182 0.97379,3.926443 1.46243,5.889227 0.81718,-0.09641 1.7558,0.367541 2.48103,-0.110698 1.31224,-1.998493 2.65277,-4.043175 4.80999,-5.262349 1.78258,-0.806204 3.97886,-0.685061 5.68164,0.257813 1.51836,0.976438 1.88367,2.893195 2.16796,4.542968 0.0646,0.489083 0.11513,1.224499 0.0781,1.8125 -4.59588,1.195015 -9.53562,1.686497 -13.59836,4.349699 -2.69148,1.699189 -4.95814,4.477728 -5.12913,7.765717 -0.22315,2.871987 0.84824,6.048502 3.40493,7.605655 2.7799,1.745336 6.26253,1.909997 9.42323,1.383597 2.37971,-0.368939 4.42417,-1.729678 6.26919,-3.200596 0.26838,-0.152223 0.36346,0.566356 0.61319,0.747033 1.34047,1.946853 3.78162,2.888625 6.09605,2.701208 2.3697,-0.07533 4.74761,-1.077233 6.2627,-2.93825 -0.35416,-1.13021 -0.70827,-2.260437 -1.0625,-3.390625 -1.23599,0.439573 -2.66766,1.030786 -3.94141,0.402344 -0.89653,-1.360328 -0.72639,-3.097811 -0.80668,-4.65156 -0.0331,-4.148098 0.28381,-8.298771 0.11527,-12.444144 -0.27613,-3.344556 -1.66569,-6.858274 -4.62367,-8.693524 -2.53374,-1.666373 -5.65734,-2.135151 -8.63609,-2.04085 z m 90.75,0.0039 c -5.8293,0.376683 -11.19056,4.373188 -13.34644,9.782757 -1.81698,4.304766 -1.87557,9.207904 -0.72481,13.692044 0.84641,3.227688 2.84761,6.191884 5.75557,7.893188 4.25373,2.608929 9.72367,3.092711 14.40694,1.414163 3.29529,-1.20418 6.1569,-3.484852 8.14702,-6.366137 -0.89844,-1.117313 -1.79581,-2.235486 -2.69336,-3.353515 -1.89254,2.370563 -4.68839,4.015789 -7.72266,4.330078 -2.07478,0.272483 -4.14159,0.100739 -6.05078,-0.845703 -2.18919,-1.031592 -3.44522,-3.319365 -3.84616,-5.625744 -0.28967,-1.450557 -0.36576,-2.779948 -0.41165,-4.282459 6.24359,-0.02157 12.49171,0.05444 18.73242,-0.04883 1.29966,-0.209681 1.92997,-1.680746 1.69049,-2.873714 -0.10139,-4.3412 -1.86283,-8.885318 -5.47281,-11.48073 -2.44862,-1.707685 -5.51296,-2.36295 -8.46377,-2.2354 z m -267.62891,-0.01172 c -3.31246,0.02356 -6.30201,1.957951 -8.39453,4.412109 -0.0446,-1.104787 0.149,-2.267489 -0.1875,-3.332031 -0.43446,-0.893768 -1.58403,-0.913319 -2.41054,-0.648963 -1.67018,0.235896 -3.38239,0.184193 -5.07579,-0.0014 -0.73582,0.592408 -0.79978,1.586345 -0.57622,2.435378 0.7037,7.026884 0.42189,14.127258 0.47673,21.194297 -0.039,7.592346 0.20946,15.204453 -0.44272,22.777973 -0.004,0.8562 -0.53745,1.92689 0.30348,2.54791 0.79391,0.59679 1.79728,0.009 2.69106,0.0982 1.70864,-0.0956 3.4249,-0.005 5.11799,0.23917 0.73275,-0.59361 0.82076,-1.58268 0.61074,-2.43941 -0.48539,-4.802828 -0.49861,-9.641603 -0.50332,-14.48637 3.76189,1.338474 7.98115,1.278342 11.75781,0.03125 4.40637,-1.58863 7.72234,-5.473038 9.10696,-9.889239 1.25456,-3.880061 1.42129,-8.124465 0.47593,-12.090606 -1.06891,-4.406654 -4.08624,-8.525814 -8.43836,-10.115858 -1.44114,-0.520192 -2.98014,-0.766093 -4.51172,-0.732422 z m 65.91211,0.01172 c -6.1775,0.327021 -12.03951,4.453921 -14.19876,10.290492 -1.69083,4.367525 -1.45637,9.308177 -0.0232,13.709612 1.51459,4.420231 5.20038,8.183838 9.82313,9.241846 4.59557,1.174772 9.92161,0.445887 13.51711,-2.82308 0.9549,-0.805463 1.75614,-1.770125 2.5282,-2.746995 -0.79256,-0.809681 -1.49957,-1.781488 -2.3472,-2.487629 -0.9407,-0.260639 -1.69906,0.428385 -2.32446,1.018476 -2.37894,1.886578 -5.77815,2.486708 -8.62717,1.400793 -2.86727,-1.259916 -4.45926,-4.314956 -5.03723,-7.262161 -0.44357,-2.338889 -0.48971,-4.713339 -0.14046,-7.112789 0.46198,-2.98888 1.90402,-6.031783 4.58003,-7.564503 1.92794,-1.094593 4.48867,-0.972755 6.19938,0.48416 1.37722,1.074026 2.32466,2.576066 3.20297,4.060762 0.78496,-0.255079 1.99748,0.196817 2.4121,-0.759766 0.61678,-2.15488 1.23166,-4.310303 1.84961,-6.464843 -0.84754,-1.363169 -2.57675,-1.594002 -3.97051,-2.086823 -2.4201,-0.657423 -4.93514,-0.973981 -7.44355,-0.897552 z m 143.43555,-0.002 c -3.52269,0.113017 -7.22508,1.451929 -9.34144,4.403872 -2.16909,2.925637 -2.21273,7.190973 -0.32657,10.264505 1.85997,2.768599 5.18436,3.934054 8.24861,4.808274 1.76931,0.561306 3.71758,1.081096 5.20065,2.353427 1.20937,1.449468 0.92221,3.711828 -0.11524,5.171875 -1.81942,2.140279 -5.15412,2.305616 -7.56273,1.141169 -2.00017,-0.95133 -3.54049,-2.63342 -4.79273,-4.422419 -0.81896,0.05414 -1.63791,0.108495 -2.45704,0.160156 -0.50531,2.545815 -1.00549,5.092649 -1.50976,7.638672 5.19013,1.840101 10.8693,2.922466 16.33398,1.757812 2.75842,-0.604153 5.49132,-2.031354 6.96026,-4.535353 2.14881,-3.361464 2.25491,-8.124635 -0.22338,-11.344297 -1.83287,-2.22261 -4.58381,-3.454245 -7.29044,-4.24974 -2.29031,-0.672587 -4.96355,-1.109058 -6.51129,-3.118741 -1.07258,-1.570443 -0.40947,-4.093839 1.47892,-4.675697 2.31722,-1.000563 5.16749,-0.142927 6.80999,1.584029 0.95748,0.887503 1.77021,1.873837 2.62946,2.841753 0.77316,-0.236512 1.96666,0.207791 2.36523,-0.742188 0.52167,-1.920524 1.04188,-3.841443 1.56446,-5.761719 -0.41047,-1.309884 -1.93035,-1.561706 -3.0428,-1.997462 -2.70496,-0.897496 -5.56617,-1.357794 -8.41814,-1.277928 z m 27.93945,0 c -3.5226,0.112953 -7.22471,1.452778 -9.34143,4.403872 -2.16898,2.927315 -2.21245,7.191412 -0.32638,10.266326 1.86244,2.766272 5.1838,3.932895 8.24841,4.806453 1.77098,0.561242 3.71953,1.082797 5.20456,2.35538 1.18366,1.410564 0.92206,3.60752 -0.044,5.060957 -1.60854,2.070386 -4.67746,2.378558 -7.01261,1.515215 -2.29392,-0.865764 -4.04171,-2.717754 -5.41797,-4.6875 -0.81831,0.0541 -1.63661,0.108552 -2.45508,0.160156 -0.50632,2.545742 -1.0077,5.092472 -1.51172,7.638672 5.19014,1.840101 10.8693,2.922466 16.33399,1.757812 2.76004,-0.604691 5.49574,-2.033013 6.96267,-4.540921 2.18151,-3.409122 2.25548,-8.27354 -0.3435,-11.483114 -1.88715,-2.179131 -4.64524,-3.386431 -7.36506,-4.160204 -2.25354,-0.647523 -4.87934,-1.120743 -6.36349,-3.126307 -1.00777,-1.578298 -0.3378,-4.0377 1.52344,-4.613282 2.31749,-1.00088 5.16703,-0.142509 6.81032,1.583676 0.94824,0.878002 1.77354,1.877112 2.63109,2.842106 0.77257,-0.236181 1.96521,0.207191 2.36328,-0.742188 0.52322,-1.922405 1.04291,-3.845785 1.56836,-5.767578 -0.42252,-1.303504 -1.93337,-1.55557 -3.04671,-1.991603 -2.70496,-0.897496 -5.56617,-1.357794 -8.41814,-1.277928 z m 59.87695,0 c -3.57679,0.109187 -7.33372,1.50288 -9.43945,4.53125 -2.08405,2.956202 -2.09348,7.181742 -0.17653,10.218288 1.91998,2.771848 5.2911,3.898888 8.38814,4.784617 1.69697,0.540617 3.58359,1.068775 5.0091,2.295923 1.20941,1.45753 0.92041,3.730145 -0.13282,5.189453 -1.77836,2.077716 -5.00767,2.273352 -7.38459,1.199213 -2.07574,-0.937279 -3.66947,-2.658866 -4.9533,-4.498041 -0.81896,0.05414 -1.63791,0.108495 -2.45703,0.160156 -0.50632,2.545742 -1.0077,5.092472 -1.51172,7.638672 5.19076,1.840331 10.87062,2.922415 16.33594,1.757812 2.75651,-0.606387 5.48948,-2.029628 6.95932,-4.532755 2.16422,-3.385778 2.26024,-8.200848 -0.28049,-11.415999 -1.94855,-2.302721 -4.85668,-3.530708 -7.70227,-4.314918 -2.19024,-0.610221 -4.74117,-1.134034 -6.12398,-3.119079 -0.97713,-1.595218 -0.24729,-4.016271 1.61197,-4.561033 2.39604,-0.98891 5.2315,-0.08239 6.94392,1.776524 0.86221,0.845302 1.65207,1.759705 2.44505,2.669214 0.77315,-0.236512 1.96666,0.207791 2.36523,-0.742188 0.52243,-1.923096 1.04248,-3.846846 1.56641,-5.769531 -0.42561,-1.299234 -1.93004,-1.557669 -3.04476,-1.98965 -2.70495,-0.897496 -5.56617,-1.357794 -8.41814,-1.277928 z m -263.32421,4.972656 c 2.50479,0.504165 4.11122,3.034974 4.3266,5.456998 -0.0432,0.377635 0.28157,1.178393 -0.12387,1.289096 -3.80526,-0.05232 -7.6202,-0.0017 -11.4293,-0.01953 0.63571,-2.66308 2.29999,-5.210647 4.89063,-6.304687 0.72369,-0.333806 1.53598,-0.554884 2.33594,-0.421875 z m 234.97265,0.002 c 2.48423,0.512962 4.07351,3.010086 4.30814,5.414693 -0.0386,0.391651 0.30067,1.230784 -0.16575,1.325985 -3.79122,-0.04509 -7.58875,-1.08e-4 -11.38262,-0.01607 0.58526,-2.366551 1.91014,-4.656278 4.08213,-5.884611 0.93682,-0.567017 2.04646,-1.001227 3.1581,-0.839998 z m -269.11523,0.386719 c 1.96224,0.184716 3.5625,1.684902 4.22707,3.488248 1.31419,3.090623 1.3567,6.54379 1.19073,9.845808 -0.22889,2.998679 -0.93559,6.223435 -3.1442,8.412538 -2.70605,2.449151 -7.30502,2.314828 -9.86149,-0.297375 -0.42881,-0.269705 -0.61949,-0.710835 -0.50196,-1.204297 0,-4.700131 0,-9.400261 0,-14.100391 1.21018,-2.676469 3.508,-4.863041 6.23055,-5.952563 0.59621,-0.209863 1.23366,-0.248147 1.8593,-0.191968 z m 182.67578,12.662109 c -0.0666,2.25613 -0.0958,4.527618 -0.24414,6.779297 -0.42571,0.981913 -1.5674,1.334105 -2.36524,1.953125 -1.97339,1.22357 -4.68948,1.921128 -6.76152,0.534334 -1.1226,-0.740692 -1.67458,-2.164529 -1.35566,-3.469881 0.21468,-1.881659 1.74189,-3.464987 3.41211,-4.072265 2.305,-1.02633 4.9114,-1.504773 7.36718,-2.216797 -0.0176,0.164062 -0.0351,0.328125 -0.0527,0.492187 z" />
    <text
       xml:space="preserve"
       style="font-style:normal;font-weight:normal;font-size:70.5556px;line-height:1.25;font-family:sans-serif;letter-spacing:0px;word-spacing:0px;fill:#000000;fill-opacity:1;stroke:none;stroke-width:0.52916667;stroke-miterlimit:4;stroke-dasharray:none;stroke-opacity:1"
       x="167.0217"
       y="87.728554"
       id="text10538"><tspan
         sodipodi:role="line"
         id="tspan10536"
         style="font-style:normal;font-variant:normal;font-weight:normal;font-stretch:normal;font-size:70.5556px;font-family:'Linux Biolinum G';-inkscape-font-specification:'Linux Biolinum G';stroke:none;stroke-width:0.52916667;stroke-miterlimit:4;stroke-dasharray:none;stroke-opacity:1"
         x="167.0217"
         y="87.728554">Spec Classes</tspan></text>
  </g>
</svg>
